<?xml version="1.0" standalone="no"?><!DOCTYPE svg PUBLIC "-//W3C//DTD SVG 1.1//EN" "http://www.w3.org/Graphics/SVG/1.1/DTD/svg11.dtd"><svg t="1760688249286" class="icon" viewBox="0 0 1024 1024" version="1.1" xmlns="http://www.w3.org/2000/svg" p-id="5474" xmlns:xlink="http://www.w3.org/1999/xlink" width="16" height="16"><path d="M793.6 960H230.4C140.8 960 64 883.2 64 793.6V230.4C64 140.8 140.8 64 230.4 64h563.2C883.2 64 960 140.8 960 230.4v563.2c0 89.6-76.8 166.4-166.4 166.4z m108.8-448V230.4c0-64-51.2-115.2-115.2-115.2H230.4c-64 0-115.2 51.2-115.2 115.2v563.2c0 64 51.2 115.2 115.2 115.2h563.2c64 0 115.2-51.2 115.2-115.2V512z m-275.2 281.6H403.2c-153.6 0-281.6-128-281.6-281.6s128-281.6 281.6-281.6h224c153.6 0 281.6 128 281.6 281.6s-128 281.6-281.6 281.6z m0-505.6H403.2c-128 0-224 102.4-224 224s102.4 224 224 224h224c121.6 0 224-102.4 224-224s-102.4-224-224-224zM512 678.4c-89.6 0-166.4-76.8-166.4-166.4S422.4 345.6 512 345.6s166.4 76.8 166.4 166.4-76.8 166.4-166.4 166.4zM512 384c-70.4 0-128 57.6-128 128s57.6 128 128 128 128-57.6 128-128-57.6-128-128-128z" p-id="5475" fill="#dbdbdb"></path></svg>