<?xml version="1.0" standalone="no"?><!DOCTYPE svg PUBLIC "-//W3C//DTD SVG 1.1//EN" "http://www.w3.org/Graphics/SVG/1.1/DTD/svg11.dtd"><svg t="1762325236622" class="icon" viewBox="0 0 1024 1024" version="1.1" xmlns="http://www.w3.org/2000/svg" p-id="4734" xmlns:xlink="http://www.w3.org/1999/xlink" width="16" height="16"><path d="M475.794286 642.779429a53.101714 53.101714 0 0 0 37.522285 16.310857c14.628571 0 27.794286-6.509714 37.522286-16.310857 70.217143-68.534857 215.405714-226.742857 215.405714-381.805715A252.854857 252.854857 0 0 0 513.316571 4.754286a255.268571 255.268571 0 0 0-254.537142 256.219428c0 156.598857 146.870857 314.88 217.014857 381.805715z m37.522285-533.577143c83.236571 0 151.771429 68.534857 151.771429 153.380571 0 83.236571-63.634286 182.784-107.739429 241.517714a47.689143 47.689143 0 0 1-44.032 26.112 47.689143 47.689143 0 0 1-44.032-26.112c-44.105143-60.416-107.739429-158.281143-107.739428-241.517714 0-84.845714 68.534857-153.380571 151.771428-153.380571zM968.557714 256h-1.609143c-8.192 0-14.628571 3.291429-22.820571 6.582857l-75.117714 44.032a50.907429 50.907429 0 0 0-17.92 70.217143c14.628571 24.429714 44.032 32.621714 68.534857 19.529143v391.606857l-244.736 125.659429-303.542857-161.572572a50.176 50.176 0 0 0-31.012572-9.728 50.176 50.176 0 0 0-31.012571 9.728l-200.704 109.348572V455.094857l50.614857-29.330286a50.907429 50.907429 0 0 0 17.92-70.217142c-14.628571-24.429714-45.641143-32.621714-68.534857-17.92L33.645714 381.659429a61.001143 61.001143 0 0 0-21.211428 24.502857 45.202286 45.202286 0 0 0-4.900572 21.211428v517.266286c0 6.582857 1.682286 13.019429 3.291429 17.92 0 1.682286 1.609143 3.291429 3.291428 6.582857a51.053714 51.053714 0 0 0 68.461715 21.211429l257.828571-140.434286 311.661714 166.473143c17.993143 9.801143 39.204571 6.582857 53.833143-4.900572l285.622857-148.48a46.518857 46.518857 0 0 0 24.429715-30.939428c1.609143-4.900571 1.609143-9.801143 1.609143-14.701714V306.614857a48.493714 48.493714 0 0 0-48.932572-50.614857z" fill="#cdcdcd" p-id="4735"></path></svg>