<?xml version="1.0" standalone="no"?><!DOCTYPE svg PUBLIC "-//W3C//DTD SVG 1.1//EN" "http://www.w3.org/Graphics/SVG/1.1/DTD/svg11.dtd"><svg t="1763534394724" class="icon" viewBox="0 0 1024 1024" version="1.1" xmlns="http://www.w3.org/2000/svg" p-id="46324" xmlns:xlink="http://www.w3.org/1999/xlink" width="16" height="16"><path d="M512 979.3024c-19.8144 0-35.84-16.0256-35.84-35.84V80.5376c0-19.8144 16.0256-35.84 35.84-35.84s35.84 16.0256 35.84 35.84v862.976c0 19.7632-16.0256 35.7888-35.84 35.7888z" fill="#cdcdcd" p-id="46325"></path><path d="M943.4624 547.84H80.5376c-19.8144 0-35.84-16.0256-35.84-35.84s16.0256-35.84 35.84-35.84h862.976c19.8144 0 35.84 16.0256 35.84 35.84s-16.0768 35.84-35.8912 35.84z" fill="#cdcdcd" p-id="46326"></path><path d="M512 512m-133.0176 0a133.0176 133.0176 0 1 0 266.0352 0 133.0176 133.0176 0 1 0-266.0352 0Z" fill="#cdcdcd" p-id="46327"></path><path d="M512 414.8224c53.6576 0 97.1776 43.52 97.1776 97.1776s-43.52 97.1776-97.1776 97.1776-97.1776-43.52-97.1776-97.1776 43.52-97.1776 97.1776-97.1776m0-71.68c-93.0816 0-168.8576 75.7248-168.8576 168.8576 0 93.0816 75.7248 168.8576 168.8576 168.8576s168.8576-75.7248 168.8576-168.8576c0-93.0816-75.776-168.8576-168.8576-168.8576z" fill="#cdcdcd" p-id="46328"></path><path d="M97.1776 98.9696m-97.1776 0a97.1776 97.1776 0 1 0 194.3552 0 97.1776 97.1776 0 1 0-194.3552 0Z" fill="#cdcdcd" p-id="46329"></path><path d="M926.8224 98.9696m-97.1776 0a97.1776 97.1776 0 1 0 194.3552 0 97.1776 97.1776 0 1 0-194.3552 0Z" fill="#cdcdcd" p-id="46330"></path><path d="M97.1776 925.0304m-97.1776 0a97.1776 97.1776 0 1 0 194.3552 0 97.1776 97.1776 0 1 0-194.3552 0Z" fill="#cdcdcd" p-id="46331"></path><path d="M926.8224 925.0304m-97.1776 0a97.1776 97.1776 0 1 0 194.3552 0 97.1776 97.1776 0 1 0-194.3552 0Z" fill="#cdcdcd" p-id="46332"></path></svg>