<?xml version="1.0" standalone="no"?><!DOCTYPE svg PUBLIC "-//W3C//DTD SVG 1.1//EN" "http://www.w3.org/Graphics/SVG/1.1/DTD/svg11.dtd"><svg t="1763534498947" class="icon" viewBox="0 0 1024 1024" version="1.1" xmlns="http://www.w3.org/2000/svg" p-id="55960" xmlns:xlink="http://www.w3.org/1999/xlink" width="16" height="16"><path d="M674.944 502.464l48.32-78.208-27.52-16.384-48.288 78.208 27.52 16.384z m65.536-109.92l32.8-54.976-27.52-16.384-32.768 54.944 27.52 16.416z m65.6-109.984l24.192-40.608-27.52-16.384-24.16 40.608 27.488 16.384zM260.032 588.032l29.248 12.96-99.84 225.376-29.28-12.96L260 588.032zM590.496 512v32H337.472v-32h253.024z" p-id="55961" fill="#cdcdcd"></path><path d="M848 96a80 80 0 1 1 0 160 80 80 0 0 1 0-160z m0 32a48 48 0 1 0 0 96 48 48 0 0 0 0-96z" p-id="55962" fill="#cdcdcd"></path><path d="M160 832a32 32 0 1 1 0 64 32 32 0 0 1 0-64z m480-320a32 32 0 1 1 0 64 32 32 0 0 1 0-64z m-352 0a32 32 0 1 1 0 64 32 32 0 0 1 0-64z m560-384a48 48 0 1 1 0 96 48 48 0 0 1 0-96z" p-id="55963" fill="#cdcdcd"></path><path d="M160 800a64 64 0 1 1 0 128 64 64 0 0 1 0-128z m0 32a32 32 0 1 0 0 64 32 32 0 0 0 0-64z m128-352a64 64 0 1 1 0 128 64 64 0 0 1 0-128z m352 0a64 64 0 1 1 0 128 64 64 0 0 1 0-128z m-352 32a32 32 0 1 0 0 64 32 32 0 0 0 0-64z m352 0a32 32 0 1 0 0 64 32 32 0 0 0 0-64z" p-id="55964" fill="#cdcdcd"></path></svg>