<?xml version="1.0" standalone="no"?><!DOCTYPE svg PUBLIC "-//W3C//DTD SVG 1.1//EN" "http://www.w3.org/Graphics/SVG/1.1/DTD/svg11.dtd"><svg t="1763534549045" class="icon" viewBox="0 0 1024 1024" version="1.1" xmlns="http://www.w3.org/2000/svg" p-id="57311" xmlns:xlink="http://www.w3.org/1999/xlink" width="16" height="16"><path d="M814.545455 977.454545h-4.933819a46.545455 46.545455 0 0 1-46.545454-46.545454v-4.864H237.661091V930.909091a46.545455 46.545455 0 0 1-46.545455 46.545454H93.090909a46.545455 46.545455 0 0 1-46.545454-46.545454v-98.001455-1.186909a46.545455 46.545455 0 0 1 46.545454-45.381818h23.272727V261.026909H93.090909a46.545455 46.545455 0 0 1-46.545454-46.545454V116.363636a46.545455 46.545455 0 0 1 46.545454-46.545454h98.048a46.545455 46.545455 0 0 1 46.545455 46.545454v23.272728h525.498181V116.363636a46.545455 46.545455 0 0 1 46.545455-46.545454h102.912a46.545455 46.545455 0 0 1 46.545455 46.545454v98.001455a46.545455 46.545455 0 0 1-46.545455 46.545454H907.636364v50.222546l2.327272 1.303273-2.327272 3.863272v470.109091H912.523636a46.545455 46.545455 0 0 1 46.545455 46.545455V930.909091a46.545455 46.545455 0 0 1-46.545455 46.545454z m-51.502546-121.250909v-23.272727a46.545455 46.545455 0 0 1 46.545455-46.545454H837.818182v-349.09091l-241.873455 418.909091z m-247.691636 0l322.443636-558.545454v-36.701091h-28.206545a46.545455 46.545455 0 0 1-46.545455-46.545455V209.454545h-39.889454L349.789091 856.133818z m-246.178909 0L642.56 209.454545h-152.110545L186.181818 736.442182v49.896727h4.864a46.545455 46.545455 0 0 1 46.545455 46.545455v23.272727zM186.181818 596.759273L409.832727 209.454545h-172.218182v4.887273a46.545455 46.545455 0 0 1-46.545454 46.545455H186.181818z" fill="#cdcdcd" p-id="57312"></path></svg>