<?xml version="1.0" standalone="no"?><!DOCTYPE svg PUBLIC "-//W3C//DTD SVG 1.1//EN" "http://www.w3.org/Graphics/SVG/1.1/DTD/svg11.dtd"><svg t="1763533878149" class="icon" viewBox="0 0 1024 1024" version="1.1" xmlns="http://www.w3.org/2000/svg" p-id="36911" width="16" height="16" xmlns:xlink="http://www.w3.org/1999/xlink"><path d="M768 556.8a38.4 38.4 0 0 1 38.4 38.4v134.4h134.4a38.4 38.4 0 0 1 38.208 34.464L979.2 768a38.4 38.4 0 0 1-38.4 38.4h-134.4v134.4a38.4 38.4 0 0 1-34.464 38.208L768 979.2a38.4 38.4 0 0 1-38.4-38.4v-134.4h-134.4a38.4 38.4 0 0 1-38.208-34.464L556.8 768a38.4 38.4 0 0 1 38.4-38.4h134.4v-134.4a38.4 38.4 0 0 1 34.464-38.208z m-403.2 0A115.2 115.2 0 0 1 480 672v192a115.2 115.2 0 0 1-115.2 115.2h-192A115.2 115.2 0 0 1 57.6 864v-192a115.2 115.2 0 0 1 115.2-115.2h192z m0 76.8h-192A38.4 38.4 0 0 0 134.4 672v192a38.4 38.4 0 0 0 38.4 38.4h192a38.4 38.4 0 0 0 38.4-38.4v-192a38.4 38.4 0 0 0-38.4-38.4z m0-576A115.2 115.2 0 0 1 480 172.8v192a115.2 115.2 0 0 1-115.2 115.2h-192a115.2 115.2 0 0 1-115.2-115.2v-192a115.2 115.2 0 0 1 115.2-115.2h192z m499.2 0a115.2 115.2 0 0 1 115.2 115.2v192A115.2 115.2 0 0 1 864 480h-192a115.2 115.2 0 0 1-115.2-115.2v-192A115.2 115.2 0 0 1 672 57.6h192zM364.8 134.4h-192a38.4 38.4 0 0 0-38.4 38.4v192a38.4 38.4 0 0 0 38.4 38.4h192a38.4 38.4 0 0 0 38.4-38.4v-192a38.4 38.4 0 0 0-38.4-38.4z m499.2 0h-192a38.4 38.4 0 0 0-38.4 38.4v192a38.4 38.4 0 0 0 38.4 38.4h192a38.4 38.4 0 0 0 38.4-38.4v-192A38.4 38.4 0 0 0 864 134.4z" fill="#cdcdcd" p-id="36912"></path></svg>