<?xml version="1.0" standalone="no"?><!DOCTYPE svg PUBLIC "-//W3C//DTD SVG 1.1//EN" "http://www.w3.org/Graphics/SVG/1.1/DTD/svg11.dtd"><svg t="1763519198991" class="icon" viewBox="0 0 1024 1024" version="1.1" xmlns="http://www.w3.org/2000/svg" p-id="10825" width="16" height="16" xmlns:xlink="http://www.w3.org/1999/xlink"><path d="M502.250667 14.72l225.984 249.962667H276.266667L502.250667 14.677333V14.72z m100.394666 274.944v75.029333h-200.896v-75.029333h200.896z m0 200v-75.008h-200.896v75.008h200.896z m-129.728 25.514667l29.290667-0.533334 29.354667 0.533334c208.192 7.488 372.48 93.909333 372.48 199.466666 0 110.506667-179.968 200-401.834667 200-221.909333 0-401.728-89.514667-401.728-200 0-105.514667 164.245333-191.978667 372.437333-199.466666z m531.498667 249.450666c0-138.026667-224.832-249.984-502.208-249.984l-14.72 0.170667-16.426667 0.362667C208.213333 523.157333 0 631.808 0 764.629333c0 138.048 224.810667 250.026667 502.186667 250.026667 277.376 0 502.186667-111.978667 502.186666-250.026667z m-558.592-191.488l-17.493333 74.901334h149.76l-17.493334-74.837334h67.050667l69.290667 232.96h-81.856l-22.976-98.154666h-177.834667l-22.912 98.133333h-81.834667l69.269334-233.002667h67.029333z" p-id="10826" fill="#cdcdcd"></path></svg>