<?xml version="1.0" standalone="no"?><!DOCTYPE svg PUBLIC "-//W3C//DTD SVG 1.1//EN" "http://www.w3.org/Graphics/SVG/1.1/DTD/svg11.dtd"><svg t="1763534776985" class="icon" viewBox="0 0 1024 1024" version="1.1" xmlns="http://www.w3.org/2000/svg" p-id="58374" width="128" height="128" xmlns:xlink="http://www.w3.org/1999/xlink"><path d="M512 811.008C362.154667 594.944 238.933333 464.554667 238.933333 341.333333c0-183.978667 122.197333-273.066667 273.066667-273.066666s273.066667 89.770667 273.066667 273.066666c0 122.538667-123.562667 252.928-273.066667 469.333334z m0-328.362667a149.845333 149.845333 0 0 0 151.893333-148.138666 151.552 151.552 0 0 0-302.762666 0A149.504 149.504 0 0 0 512 482.645333z m-188.074667 176.469334l42.325334 41.984c-79.189333 19.114667-131.413333 53.248-131.413334 92.16 0 59.733333 123.904 108.202667 277.162667 108.202666s277.504-48.469333 277.504-108.202666c0-38.570667-51.541333-72.362667-129.024-91.477334l41.984-41.984c86.016 29.354667 142.336 78.165333 142.336 133.461334 0 89.770667-148.821333 162.474667-332.8 162.474666s-332.8-72.704-332.8-162.474666c0-55.637333 57.344-104.789333 144.725333-134.144z m0 0" p-id="58375" fill="#e98f36"></path></svg>