<?xml version="1.0" standalone="no"?><!DOCTYPE svg PUBLIC "-//W3C//DTD SVG 1.1//EN" "http://www.w3.org/Graphics/SVG/1.1/DTD/svg11.dtd"><svg t="1761290369610" class="icon" viewBox="0 0 1024 1024" version="1.1" xmlns="http://www.w3.org/2000/svg" p-id="14635" xmlns:xlink="http://www.w3.org/1999/xlink" width="16" height="16"><path d="M98.4 373.4L98.4 713.9 316.5 932.1l610.8 0 0-612.8-218.2-218.1L98.4 101.2 98.4 373.4z m61.7 340.5l156.4 0L316.5 870.3l-156.4-156.4zM360.2 888.6L360.20000001 714l318.09999999 0L852.8 888.6 360.2 888.6z m523.39999999-525.7L883.6 857.6l-174.5-174.4 0-320.3 174.49999999 0z m-218.09999999 0L665.5 670.3 360.2 670.3l0-307.5 305.3 0z m-349-12.8L316.5 670.3 141.9 670.3l0-494.7L316.5 350.1z m549-30.9L708.9 319.2l0-156.3L865.5 319.2z m-200.1-174.4L665.4 319.3l-318 0-174.5-174.7 492.7 0-0.2 0.2z m0 0" fill="#cdcdcd" p-id="14636" data-spm-anchor-id="a313x.search_index.0.i42.18083a812FzDlI" class="selected"></path><path d="M134.6 168.30000001L316.5 350.1 316.5 870.3 134.6 689z" fill="#e98f36" p-id="14637" data-spm-anchor-id="a313x.search_index.0.i41.18083a812FzDlI" class=""></path></svg>