<?xml version="1.0" standalone="no"?><!DOCTYPE svg PUBLIC "-//W3C//DTD SVG 1.1//EN" "http://www.w3.org/Graphics/SVG/1.1/DTD/svg11.dtd"><svg t="1762156405015" class="icon" viewBox="0 0 1024 1024" version="1.1" xmlns="http://www.w3.org/2000/svg" p-id="13545" xmlns:xlink="http://www.w3.org/1999/xlink" width="16" height="16"><path d="M908.8 769.92c0 97.28-205.44 141.44-396.8 141.44s-396.8-44.16-396.8-141.44c0-45.44 43.52-81.92 129.92-108.16 16.64-5.12 34.56 5.12 39.68 21.76s-4.48 34.56-21.76 39.68c-68.48 21.12-83.84 42.88-83.84 46.72 0 22.4 116.48 77.44 332.8 77.44s332.8-55.04 332.8-77.44c0-3.84-15.36-25.6-83.84-46.72-17.28-5.12-26.88-23.04-21.76-39.68s23.04-26.24 39.68-21.76c86.4 26.24 129.92 62.72 129.92 108.16z" p-id="13546" fill="#cdcdcd"></path><path d="M494.72 760.32a32.192 32.192 0 0 0 34.56 0c10.24-6.4 251.52-166.4 251.52-360.96 0-144.64-120.32-263.04-268.8-263.04S243.2 254.72 243.2 399.36c0 194.56 241.28 354.56 251.52 360.96zM512 200.32c113.28 0 204.8 89.6 204.8 199.04 0 133.12-152.32 256.64-204.8 295.04-52.48-38.4-204.8-161.92-204.8-295.04 0-109.44 91.52-199.04 204.8-199.04z" p-id="13547" fill="#cdcdcd"></path><path d="M512 528.64a122.88 122.88 0 1 1 0.064-245.824A122.88 122.88 0 0 1 512 528.64z m0-182.4c-32.64 0-58.88 26.24-58.88 58.88s26.24 58.88 58.88 58.88 58.88-26.24 58.88-58.88-26.88-58.88-58.88-58.88z" p-id="13548" fill="#cdcdcd"></path></svg>