<?xml version="1.0" standalone="no"?><!DOCTYPE svg PUBLIC "-//W3C//DTD SVG 1.1//EN" "http://www.w3.org/Graphics/SVG/1.1/DTD/svg11.dtd"><svg t="1761273993666" class="icon" viewBox="0 0 1024 1024" version="1.1" xmlns="http://www.w3.org/2000/svg" p-id="12558" xmlns:xlink="http://www.w3.org/1999/xlink" width="16" height="16"><path d="M512 960h-6.4l-426.666667-128c-10.666667-4.266667-17.066667-14.933333-14.933333-25.6l170.666667-618.666667c2.133333-6.4 6.4-10.666667 12.8-14.933333l256-106.666667c4.266667-2.133333 10.666667-2.133333 17.066666 0l256 106.666667c6.4 2.133333 10.666667 8.533333 12.8 14.933333l170.666667 618.666667c2.133333 10.666667-4.266667 23.466667-14.933333 25.6l-426.666667 128H512zM110.933333 795.733333L512 917.333333l401.066667-119.466666-162.133334-590.933334L512 108.8 273.066667 206.933333 110.933333 795.733333z" fill="#cdcdcd" p-id="12559"></path><path d="M512 960c-12.8 0-21.333333-8.533333-21.333333-21.333333V298.666667c0-12.8 8.533333-21.333333 21.333333-21.333334s21.333333 8.533333 21.333333 21.333334v640c0 12.8-8.533333 21.333333-21.333333 21.333333z" fill="#cdcdcd" p-id="12560"></path><path d="M512 320c-8.533333 0-17.066667-4.266667-19.2-12.8-4.266667-10.666667 0-23.466667 10.666667-27.733333l256-106.666667c10.666667-4.266667 23.466667 0 27.733333 10.666667s0 23.466667-10.666667 27.733333l-256 106.666667c-2.133333 2.133333-6.4 2.133333-8.533333 2.133333z" fill="#cdcdcd" p-id="12561"></path><path d="M512 320c-2.133333 0-6.4 0-8.533333-2.133333l-256-106.666667c-10.666667-4.266667-17.066667-17.066667-10.666667-27.733333 4.266667-10.666667 17.066667-17.066667 27.733333-10.666667l256 106.666667c10.666667 4.266667 17.066667 17.066667 10.666667 27.733333-2.133333 8.533333-10.666667 12.8-19.2 12.8zM106.666667 832c-8.533333 0-17.066667-6.4-21.333334-14.933333-4.266667-10.666667 2.133333-23.466667 14.933334-27.733334l405.333333-128c10.666667-4.266667 23.466667 2.133333 27.733333 14.933334 4.266667 10.666667-2.133333 23.466667-14.933333 27.733333l-405.333333 128H106.666667z" fill="#cdcdcd" p-id="12562"></path><path d="M938.666667 832h-6.4l-426.666667-128c-10.666667-4.266667-17.066667-14.933333-14.933333-25.6 4.266667-10.666667 14.933333-17.066667 25.6-14.933333l426.666666 128c10.666667 4.266667 17.066667 14.933333 14.933334 25.6-2.133333 8.533333-10.666667 14.933333-19.2 14.933333z" fill="#cdcdcd" p-id="12563"></path></svg>