<?xml version="1.0" standalone="no"?><!DOCTYPE svg PUBLIC "-//W3C//DTD SVG 1.1//EN" "http://www.w3.org/Graphics/SVG/1.1/DTD/svg11.dtd"><svg t="1761290433081" class="icon" viewBox="0 0 1024 1024" version="1.1" xmlns="http://www.w3.org/2000/svg" p-id="20476" xmlns:xlink="http://www.w3.org/1999/xlink" width="16" height="16"><path d="M904.192 698.368l-184.32 183.808V336.896l184.32-184.832v546.304z" fill="#e98f36" p-id="20477" data-spm-anchor-id="a313x.search_index.0.i46.18083a812FzDlI" class=""></path><path d="M663.04 74.752H304.128l-230.4 229.888v644.096h646.144l229.888-230.4V74.752h-286.72zM304.128 139.776v164.864H138.752l165.376-164.864z m-184.32 211.456h184.32v335.36l-184.32 183.808V351.232z m554.496 551.936H152.576l183.808-183.808h337.92v183.808z m0-230.4H349.696V351.232h324.096l0.512 321.536z m13.312-368.128h-337.92v-184.32h521.728l-183.808 184.32z m32.768 579.072v-165.376h164.864l-164.864 165.376z m183.808-210.944h-183.808V337.408l184.32-183.808-0.512 519.168z" fill="#cdcdcd" p-id="20478" data-spm-anchor-id="a313x.search_index.0.i47.18083a812FzDlI" class="selected"></path></svg>