<?xml version="1.0" standalone="no"?><!DOCTYPE svg PUBLIC "-//W3C//DTD SVG 1.1//EN" "http://www.w3.org/Graphics/SVG/1.1/DTD/svg11.dtd"><svg t="1761644667403" class="icon" viewBox="0 0 1080 1024" version="1.1" xmlns="http://www.w3.org/2000/svg" p-id="2465" xmlns:xlink="http://www.w3.org/1999/xlink" width="16.875" height="16"><path d="M108.600889 99.84a39.822222 39.822222 0 0 1 56.32 0l768 768a39.822222 39.822222 0 1 1-56.32 56.32l-768-768a39.822222 39.822222 0 0 1 0-56.32z" fill="#cdcdcd" p-id="2466"></path><path d="M437.76 377.742222a39.822222 39.822222 0 0 1-23.324444 51.313778l-85.048889 31.857778-29.696 29.752889 242.403555 242.403555 29.696-29.752889 32.028445-85.219555a39.822222 39.822222 0 0 1 45.568-25.031111l5.688889 1.706666a39.822222 39.822222 0 0 1 23.324444 51.256889l-35.043556 93.297778a39.822222 39.822222 0 0 1-9.102222 14.165333l-64 64a39.822222 39.822222 0 0 1-56.32 0l-298.666666-298.666666a39.822222 39.822222 0 0 1 0-56.32l64-64a39.822222 39.822222 0 0 1 14.222222-9.102223l93.013333-34.929777a39.822222 39.822222 0 0 1 51.256889 23.324444z m431.160889-21.902222a39.822222 39.822222 0 0 1 0 56.32l-138.638222 138.695111a39.822222 39.822222 0 0 1-56.32-56.32l138.638222-138.695111a39.822222 39.822222 0 0 1 56.32 0zM676.920889 163.84a39.822222 39.822222 0 0 1 0 56.32L538.282667 358.798222a39.822222 39.822222 0 0 1-56.32-56.32L620.657778 163.84a39.822222 39.822222 0 0 1 56.32 0z" fill="#cdcdcd" p-id="2467"></path><path d="M364.600889 611.84a39.822222 39.822222 0 1 1 56.32 56.32L228.920889 860.16a39.822222 39.822222 0 1 1-56.32-56.32l192-192zM599.267556 142.506667a39.822222 39.822222 0 0 1 56.32 0l234.666666 234.666666a39.822222 39.822222 0 1 1-56.32 56.32l-234.666666-234.666666a39.822222 39.822222 0 0 1 0-56.32z" fill="#cdcdcd" p-id="2468"></path></svg>