<?xml version="1.0" standalone="no"?><!DOCTYPE svg PUBLIC "-//W3C//DTD SVG 1.1//EN" "http://www.w3.org/Graphics/SVG/1.1/DTD/svg11.dtd"><svg t="1761290346766" class="icon" viewBox="0 0 1024 1024" version="1.1" xmlns="http://www.w3.org/2000/svg" p-id="14371" xmlns:xlink="http://www.w3.org/1999/xlink" width="16" height="16"><path d="M650.6 98.4H310.1L91.9 316.5v610.8h612.8l218.1-218.2V98.4H650.6z m-340.5 61.7v156.4H153.7l156.4-156.4zM135.4 360.2H310v318.1L135.4 852.8V360.2z m525.7 523.4H166.4l174.4-174.5h320.3v174.5z m0-218.1H353.7V360.2h307.5v305.3z m12.8-349H353.7V141.9h494.7L673.9 316.5z m30.9 549V708.9h156.3L704.8 865.5z m174.4-200.1H704.7v-318l174.7-174.5v492.7l-0.2-0.2z m0 0" fill="#cdcdcd" p-id="14372" data-spm-anchor-id="a313x.search_index.0.i38.18083a812FzDlI" class="selected"></path><path d="M855.7 134.6L673.9 316.5H153.7L335 134.6z" fill="#e98f36" p-id="14373" data-spm-anchor-id="a313x.search_index.0.i37.18083a812FzDlI" class=""></path></svg>