<?xml version="1.0" standalone="no"?><!DOCTYPE svg PUBLIC "-//W3C//DTD SVG 1.1//EN" "http://www.w3.org/Graphics/SVG/1.1/DTD/svg11.dtd"><svg t="1763709291871" class="icon" viewBox="0 0 1024 1024" version="1.1" xmlns="http://www.w3.org/2000/svg" p-id="23468" xmlns:xlink="http://www.w3.org/1999/xlink" width="16" height="16"><path d="M850.992179 713.51183a337.640756 337.640756 0 0 0-99.65249-165.151354C645.16449 452.965865 505.107445 460.756878 482.368558 462.749927c-75.10174 0-133.262557-22.738886-172.761181-66.404795a243.333263 243.333263 0 0 1-50.82277-95.485205 156.273223 156.273223 0 1 0-104.816301 4.982625v412.01775a156.363817 156.363817 0 1 0 90.593173 0V459.488573c57.617258 62.23751 138.335775 93.854527 239.890722 93.854527h4.892032c1.177711 0 119.492395-11.595926 202.656928 63.415221a245.235719 245.235719 0 0 1 67.854286 108.711808 156.273223 156.273223 0 1 0 91.136732-11.777112z" p-id="23469" fill="#cdcdcd"></path></svg>