<?xml version="1.0" standalone="no"?><!DOCTYPE svg PUBLIC "-//W3C//DTD SVG 1.1//EN" "http://www.w3.org/Graphics/SVG/1.1/DTD/svg11.dtd"><svg t="1763519311548" class="icon" viewBox="0 0 1024 1024" version="1.1" xmlns="http://www.w3.org/2000/svg" p-id="13002" width="16" height="16" xmlns:xlink="http://www.w3.org/1999/xlink"><path d="M726.833902 146.294399a31.9979 31.9979 0 1 0-63.995801 0v150.838102H512a31.9979 31.9979 0 0 0 0 63.9958h150.838101V511.966402a31.9979 31.9979 0 0 0 63.995801 0V361.128301h150.838101a31.9979 31.9979 0 0 0 0-63.9958h-150.838101V146.294399zM53.342099 618.647401C53.342099 542.044428 115.418026 479.968502 192.020999 479.968502h107.896919a73.1472 73.1472 0 1 1 0 63.9958H192.020999a74.683099 74.683099 0 0 0 0 149.302202h639.958002a138.678899 138.678899 0 0 1 0 277.357799H436.164977a73.1472 73.1472 0 1 1-12.159202-63.9958H831.979001a74.683099 74.683099 0 0 0 0-149.366198H192.020999A138.678899 138.678899 0 0 1 53.342099 618.647401z" p-id="13003" fill="#cdcdcd"></path></svg>